# xmcd CD database file
# Copyright (C) 2002 Ti Kan
# 
# Track frame offsets:
#     150
#     20056
#     41255
#     57899
#     80509
#     119409
#     127644
#     139666
#     159740
#     173392
#     205776
#     234422
# 
# Disc length: 3376 seconds
# 
# Revision: 1
# Processed by: cddbd v1.4PL0 Copyright (c) Steve Scherf et al.
# Submitted via: DiscPlay 4.0.4
# 
DISCID=900d2e0c
DTITLE=B. B. King and Eric Clapton - Riding with the king
DYEAR=1900
DGENRE=
TTITLE0=Riding with the king
TTITLE1=Ten long years
TTITLE2=Key to the highway
TTITLE3=Marry you
TTITLE4=Three o clock blues
TTITLE5=Help the poor
TTITLE6=I wanna be
TTITLE7=Worried life blues
TTITLE8=Day of old
TTITLE9=When my heart beats like a hammer
TTITLE10=Hold on I m comming
TTITLE11=Comes rain or comes shine
EXTD=
EXTT0=
EXTT1=
EXTT2=
EXTT3=
EXTT4=
EXTT5=
EXTT6=
EXTT7=
EXTT8=
EXTT9=
EXTT10=
EXTT11=
PLAYORDER=
